Results
version=1
nRows=12
nColumns=38
inDegrees=yes
endheader
time	pelvis_tilt	pelvis_list	pelvis_rotation	pelvis_tx	pelvis_ty	pelvis_tz	hip_flexion_r	hip_adduction_r	hip_rotation_r	knee_angle_r	ankle_angle_r	subtalar_angle_r	mtp_angle_r	hip_flexion_l	hip_adduction_l	hip_rotation_l	knee_angle_l	ankle_angle_l	subtalar_angle_l	mtp_angle_l	lumbar_extension	lumbar_bending	lumbar_rotation	arm_flex_r	arm_add_r	arm_rot_r	elbow_flex_r	pro_sup_r	wrist_flex_r	wrist_dev_r	arm_flex_l	arm_add_l	arm_rot_l	elbow_flex_l	pro_sup_l	wrist_flex_l	wrist_dev_l
      2.25500000	      5.59178934	     -1.02381934	     -3.07883038	     -0.01302857	      0.93970152	      0.00789470	     -6.47630911	     -1.68180503	      0.00023932	     -1.08234943	      0.00029700	      0.00000000	      0.00000000	     -7.63319707	     -3.60217718	      0.00019313	     -0.16979296	      0.00039999	      0.00000000	      0.00000000	    -12.01477743	      3.34944374	      3.10521977	     -2.74006044	     -6.78995438	    -22.55494376	     27.77468638	     97.69861228	      0.00000000	      0.00000000	     -1.11456887	     -8.68357794	     -1.31112474	     32.49681134	    138.34671870	      0.00000000	      0.00000000
      2.26000000	      5.52919536	     -1.01571963	     -3.08748590	     -0.01302082	      0.93964775	      0.00789074	     -6.40279377	     -1.68909330	      0.00022687	     -1.09322612	      0.00020971	      0.00000000	      0.00000000	     -7.56195177	     -3.60053833	      0.00021509	     -0.17620883	      0.00041834	      0.00000000	      0.00000000	    -11.94509916	      3.34480057	      3.10897230	     -2.64763669	     -6.76995169	    -22.90293803	     27.54915912	     98.05553805	      0.00000000	      0.00000000	     -1.10966161	     -8.68718272	     -1.21510234	     32.45500233	    138.27023557	      0.00000000	      0.00000000
      2.26500000	      5.56717898	     -1.02755386	     -3.07802451	     -0.01292930	      0.93967592	      0.00788089	     -6.45753725	     -1.68042368	      0.00019514	     -1.08479539	      0.00023308	      0.00000000	      0.00000000	     -7.62057706	     -3.60807950	      0.00014971	     -0.15722663	      0.00039410	      0.00000000	      0.00000000	    -11.98267649	      3.35574399	      3.11025888	     -2.79324756	     -6.80994463	    -22.28300295	     27.87290466	     97.17834500	      0.00000000	      0.00000000	     -1.09811033	     -8.68486351	     -1.23639002	     32.45233651	    138.46581614	      0.00000000	      0.00000000
      2.27000000	      5.56779157	     -1.01852401	     -3.08366807	     -0.01289645	      0.93967574	      0.00790489	     -6.46112246	     -1.68800159	      0.00020842	     -1.07723160	      0.00025813	      0.00000000	      0.00000000	     -7.62674401	     -3.60172167	      0.00022009	     -0.14868590	      0.00041895	      0.00000000	      0.00000000	    -11.97998891	      3.34130653	      3.11510299	     -2.76352675	     -6.79417015	    -22.43034963	     27.81579646	     97.26269675	      0.00000000	      0.00000000	     -1.09361465	     -8.69152790	     -1.21017698	     32.43158236	    138.32094068	      0.00000000	      0.00000000
      2.27500000	      5.57659138	     -1.01781091	     -3.07976809	     -0.01281526	      0.93969558	      0.00788988	     -6.47910942	     -1.68958592	      0.00021664	     -1.07487110	      0.00027167	      0.00000000	      0.00000000	     -7.64610930	     -3.59988545	      0.00018065	     -0.13790188	      0.00039751	      0.00000000	      0.00000000	    -11.98586993	      3.34148496	      3.11403720	     -2.72476523	     -6.77778969	    -22.69110639	     27.73071697	     97.63482449	      0.00000000	      0.00000000	     -1.10551129	     -8.68637828	     -1.20510622	     32.43101199	    137.95333117	      0.00000000	      0.00000000
      2.28000000	      5.55237114	     -1.01941952	     -3.07267645	     -0.01278952	      0.93966214	      0.00787431	     -6.45236681	     -1.68623708	      0.00021719	     -1.07883724	      0.00027812	      0.00000000	      0.00000000	     -7.62457770	     -3.59842872	      0.00017253	     -0.13991017	      0.00038916	      0.00000000	      0.00000000	    -11.95719937	      3.34476093	      3.10370003	     -2.79123238	     -6.80624318	    -22.29142653	     27.85592805	     97.22360455	      0.00000000	      0.00000000	     -1.11146085	     -8.69215032	     -1.21538462	     32.45685785	    138.43188056	      0.00000000	      0.00000000
      2.28500000	      5.55325389	     -1.01461580	     -3.08255431	     -0.01271794	      0.93966415	      0.00789477	     -6.46080764	     -1.69181593	      0.00022036	     -1.07177418	      0.00027659	      0.00000000	      0.00000000	     -7.63699525	     -3.60020839	      0.00019758	     -0.12002032	      0.00038675	      0.00000000	      0.00000000	    -11.95570630	      3.33598932	      3.11131645	     -2.79720728	     -6.80493631	    -22.27663008	     27.86077367	     97.15150690	      0.00000000	      0.00000000	     -1.11049582	     -8.68859197	     -1.22568777	     32.44218186	    138.39504877	      0.00000000	      0.00000000
      2.29000000	      5.54821005	     -1.01606282	     -3.08062030	     -0.01268127	      0.93966175	      0.00787798	     -6.45797879	     -1.69093304	      0.00019731	     -1.07146541	      0.00024596	      0.00000000	      0.00000000	     -7.63769314	     -3.60196084	      0.00018833	     -0.11140009	      0.00037267	      0.00000000	      0.00000000	    -11.95222217	      3.34181591	      3.10983767	     -2.79765194	     -6.80548096	    -22.26922628	     27.86761355	     96.98446344	      0.00000000	      0.00000000	     -1.13373313	     -8.69823036	     -1.18723111	     32.50460779	    138.28253860	      0.00000000	      0.00000000
      2.29500000	      5.54556583	     -1.02751033	     -3.06811596	     -0.01263686	      0.93964636	      0.00787062	     -6.46126596	     -1.67689606	      0.00023131	     -1.07147111	      0.00021720	      0.00000000	      0.00000000	     -7.64231183	     -3.60999610	      0.00015650	     -0.10795319	      0.00040100	      0.00000000	      0.00000000	    -11.94761000	      3.35390681	      3.10214295	     -2.83445875	     -6.83916034	    -22.05397899	     27.91643383	     97.46917791	      0.00000000	      0.00000000	     -1.14613199	     -8.72168175	     -0.97365949	     32.50441620	    137.85591335	      0.00000000	      0.00000000
      2.30000000	      5.56033668	     -1.03676235	     -3.06773263	     -0.01257051	      0.93965248	      0.00785941	     -6.48509408	     -1.66835917	      0.00021168	     -1.06706311	      0.00028336	      0.00000000	      0.00000000	     -7.66933463	     -3.61800409	      0.00017701	     -0.09833327	      0.00038930	      0.00000000	      0.00000000	    -11.95818656	      3.36477989	      3.10731365	     -2.90340469	     -6.87259767	    -21.70123810	     28.03319314	     97.36441319	      0.00000000	      0.00000000	     -1.15421827	     -8.75815253	     -0.77090687	     32.58173618	    138.18586826	      0.00000000	      0.00000000
      2.30500000	      5.53114154	     -1.01555150	     -3.06353844	     -0.01250707	      0.93964221	      0.00787070	     -6.46331223	     -1.68786379	      0.00024875	     -1.05956668	      0.00026567	      0.00000000	      0.00000000	     -7.64072737	     -3.60200691	      0.00024056	     -0.09367943	      0.00034768	      0.00000000	      0.00000000	    -11.91805270	      3.34073159	      3.09005006	     -2.75034639	     -6.78685877	    -22.56016385	     27.75806172	     97.45861027	      0.00000000	      0.00000000	     -1.14222816	     -8.69610980	     -1.16430950	     32.47587029	    138.16540148	      0.00000000	      0.00000000
      2.31000000	      5.54621033	     -1.01302820	     -3.06955925	     -0.01246229	      0.93966404	      0.00787196	     -6.47878555	     -1.69197822	      0.00022899	     -1.06019811	      0.00024397	      0.00000000	      0.00000000	     -7.66613750	     -3.59950537	      0.00018282	     -0.08011945	      0.00035890	      0.00000000	      0.00000000	    -11.93661047	      3.33468422	      3.11306766	     -2.79328651	     -6.79395566	    -22.44274707	     27.84749565	     97.53329615	      0.00000000	      0.00000000	     -1.09197514	     -8.68497879	     -1.20632830	     32.40710092	    138.27241663	      0.00000000	      0.00000000
